<svg height="468pt" fill="white" viewBox="0 -10 468 467" width="468pt" xmlns="http://www.w3.org/2000/svg">
    <path d="m441.136719 47.5h-91.136719v-38.75c-.097656-3.285156-2.140625-6.195312-5.195312-7.40625-3.054688-1.214844-6.539063-.492188-8.863282 1.832031l-15.953125 16.367188-15.925781-16.367188c-1.511719-1.550781-3.585938-2.425781-5.75-2.425781-2.167969 0-4.238281.875-5.75 2.425781l-15.882812 16.359375-15.867188-16.480468c-1.496094-1.585938-3.5625-2.507813-5.742188-2.554688-2.179687.046875-4.25.964844-5.742187 2.554688l-15.875 16.417968-15.871094-16.324218c-1.511719-1.546876-3.585937-2.417969-5.746093-2.414063-2.164063.003906-4.234376.882813-5.738282 2.4375l-15.867187 16.359375-15.871094-16.351562c-1.507813-1.554688-3.578125-2.429688-5.742187-2.429688-2.164063 0-4.234376.875-5.742188 2.429688l-15.855469 16.347656-15.847656-16.34375c-2.355469-2.34375-5.875-3.070313-8.960937-1.847656-3.070313 1.199218-5.121094 4.121093-5.210938 7.414062v38.75h-90.136719c-14.816406.191406-26.753906 12.199219-26.863281 27.011719v277.929687c0 14.664063 12.199219 27.058594 26.863281 27.058594h135.257813l-14.171875 51h-28.796875c-4.417969 0-8 3.582031-8 8s3.582031 8 8 8h228.6875c4.417968 0 8-3.582031 8-8s-3.582032-8-8-8h-28.800782l-14.167968-51h136.265625c14.664062 0 26.863281-12.394531 26.863281-27.058594v-277.929687c-.109375-14.8125-12.046875-26.820313-26.863281-27.011719zm-308.136719-19 8.058594 8.332031c1.527344 1.625 3.628906 2.582031 5.851562 2.667969h.054688c2.199218-.089844 4.277344-1.050781 5.769531-2.667969l15.871094-16.472656 15.875 16.292969c1.515625 1.542968 3.589843 2.410156 5.753906 2.402344 2.164063-.007813 4.230469-.890626 5.734375-2.445313l15.871094-16.363281 15.871094 16.355468c1.503906 1.550782 3.578124 2.425782 5.738281 2.425782 2.164062 0 4.234375-.875 5.742187-2.429688l15.875-16.355468 15.863282 16.589843c1.484374 1.617188 3.550781 2.578125 5.742187 2.667969 2.191406-.089844 4.253906-1.046875 5.738281-2.664062l15.890625-16.484376 15.898438 16.304688c1.511719 1.546875 3.582031 2.410156 5.738281 2.402344 2.226562-.003906 4.363281-.878906 5.953125-2.441406l8.109375-8.152344v229.035156h-201zm-106.136719 35h90.136719v194h-31.574219c-4.417969 0-8 3.582031-8 8s3.582031 8 8 8h296.148438c4.417969 0 8-3.582031 8-8s-3.582031-8-8-8h-31.574219v-194h91.136719c5.980469.179688 10.765625 5.03125 10.863281 11.011719v226.988281h-436v-226.988281c.097656-5.980469 4.882812-10.832031 10.863281-11.011719zm275.585938 367h-137.902344l14.171875-51h109.558594zm138.6875-67h-414.273438c-5.988281-.203125-10.769531-5.066406-10.863281-11.058594v-34.941406h436v34.941406c-.09375 5.992188-4.875 10.855469-10.863281 11.058594zm0 0"/>
    <path d="m197.003906 202.5h72.996094c4.417969 0 8-3.582031 8-8s-3.582031-8-8-8h-72.988281c-4.421875 0-8 3.582031-8 8s3.578125 8 8 8zm0 0"/>
    <path d="m304.753906 219.5h-142.507812c-4.417969 0-8 3.582031-8 8s3.582031 8 8 8h142.507812c4.417969 0 8-3.582031 8-8s-3.582031-8-8-8zm0 0"/>
    <path d="m234 142.976562c-7.382812-.011718-13.367188-5.992187-13.375-13.375 0-4.417968-3.582031-8-8-8s-8 3.582032-8 8c.015625 12.359376 7.753906 23.394532 19.375 27.617188v6.28125c0 4.417969 3.582031 8 8 8s8-3.582031 8-8v-5.144531c14.738281-3.074219 24.765625-16.796875 23.21875-31.769531-1.546875-14.976563-14.164062-26.359376-29.21875-26.363282-7.386719 0-13.378906-5.988281-13.378906-13.375 0-7.390625 5.988281-13.378906 13.378906-13.378906 7.386719 0 13.375 5.988281 13.375 13.378906 0 4.417969 3.582031 8 8 8s8-3.582031 8-8c-.019531-13.90625-9.765625-25.902344-23.375-28.757812v-3.589844c0-4.417969-3.582031-8-8-8s-8 3.582031-8 8v4.726562c-13.417969 4.851563-21.40625 18.644532-18.941406 32.699219 2.464844 14.054688 14.671875 24.300781 28.941406 24.300781 7.386719 0 13.375 5.988282 13.375 13.375 0 7.386719-5.988281 13.375-13.375 13.375zm0 0"/>
</svg>