<svg height="514pt" viewBox="-4 0 514 514.84775" width="514pt" xmlns="http://www.w3.org/2000/svg">
    <path d="m322.203125 514.847656h-257.421875v-26.53125l-64.355469-80.445312v-86.089844c0-44.359375 36.085938-80.445312 80.441407-80.445312v-160.890626c0-26.613281 21.65625-48.265624 48.269531-48.265624 6.273437 0 12.273437 1.203124 17.777343 3.394531 5.597657-20.484375 24.359376-35.574219 46.578126-35.574219s40.976562 15.089844 46.578124 35.574219c5.5-2.191407 11.503907-3.394531 17.777344-3.394531 26.609375 0 48.265625 21.652343 48.265625 48.265624v18.839844c5.039063-1.769531 10.441407-2.75 16.089844-2.75 26.613281 0 48.265625 21.65625 48.265625 48.265625v278.871094l-48.265625 64.355469zm0 0" fill="#fff" />
    <path d="m96.957031 321.78125c-8.878906 0-16.089843-7.210938-16.089843-16.089844v-64.355468c17.78125 0 32.179687 14.398437 32.179687 32.175781v32.179687c0 8.878906-7.207031 16.089844-16.089844 16.089844zm0 0" fill="#A8A7A1"/>
    <path d="m273.9375 35.136719v157.929687c0 8.882813 7.207031 16.089844 16.089844 16.089844 8.878906 0 16.085937-7.207031 16.085937-16.089844v-112.621094c0-20.949218-13.496093-38.644531-32.175781-45.308593zm0 0" fill="#A8A7A1"/>
    <path d="m241.757812 35.074219c-.546874.191406-1.15625.273437-1.6875.5-4.183593-15.269531-15.6875-27.546875-30.488281-32.789063v254.640625c0 8.878907 7.207031 16.085938 16.085938 16.085938 8.882812 0 16.089843-7.207031 16.089843-16.085938zm0 0" fill="#A8A7A1"/>
    <path d="m177.402344 2.785156c-14.800782 5.242188-26.304688 17.519532-30.488282 32.789063-.53125-.210938-1.140624-.308594-1.6875-.5v222.351562c0 8.878907 7.207032 16.085938 16.085938 16.085938 8.882812 0 16.089844-7.207031 16.089844-16.085938zm0 0" fill="#A8A7A1"/>
    <path d="m96.957031 418.3125h32.179688v32.179688h-32.179688zm0 0" fill="#fff"/>
    <path d="m161.3125 418.3125h32.179688v32.179688h-32.179688zm0 0" fill="#fff"/><g fill="#000">
    <path d="m338.292969 264.085938v41.605468h32.175781v-41.605468l20.804688 20.800781 22.75-22.75-59.640626-59.640625-59.644531 59.640625 22.75 22.75zm0 0"/>
    <path d="m370.46875 443.832031v-41.605469h-32.175781v41.605469l-20.804688-20.804687-22.75 22.75 59.644531 59.640625 59.640626-59.640625-22.75-22.75zm0 0"/>
    <path d="m446.203125 294.316406-22.75 22.75 20.800781 20.800782h-41.605468v32.179687h41.605468l-20.800781 20.804687 22.75 22.75 59.640625-59.644531zm0 0"/>
    <path d="m306.113281 370.046875v-32.179687h-41.605469l20.804688-20.800782-22.75-22.75-59.640625 59.640625 59.640625 59.644531 22.75-22.75-20.804688-20.804687zm0 0"/>
    <path d="m338.292969 337.867188h32.175781v32.179687h-32.175781zm0 0"/></g>
</svg>