<svg fill="white" height="458pt" viewBox="0 -37 458.94214 458" width="458pt" xmlns="http://www.w3.org/2000/svg"><path d="m450.941406 82.472656h-336.71875l-7.019531-44.089844c-3.496094-21.964843-21.640625-37.910156-43.144531-37.910156h-56.058594c-4.417969 0-8 3.582032-8 8 0 4.417969 3.582031 8 8 8h56.058594c13.59375 0 25.09375 10.453125 27.34375 24.597656l46.96875 295.125c1.304687 9.8125 9.625 17.175782 19.523437 17.277344h12.117188c3.738281 18 18.847656 30.617188 36.875 30.617188 18.023437 0 33.132812-12.617188 36.875-30.617188h95.898437c3.742188 18 18.851563 30.625 36.875 30.625 20.828125 0 37.773438-17.515625 37.773438-39.050781s-16.945313-39.0625-37.773438-39.0625c-18.324218 0-33.640625 13.488281-37.054687 31.488281h-95.539063c-3.414062-18-18.730468-31.5-37.054687-31.5-18.328125 0-33.644531 13.5-37.058594 31.5h-11.714844c-1.992187-.027344-3.660156-1.515625-3.910156-3.492187-.007813-.050781-.015625.042969-.023437 0l-8.539063-53.507813h238.574219c18.371094.003906 34.296875-12.722656 38.335937-30.648437l36.1875-157.132813c.546875-2.445312-.015625-5.003906-1.539062-6.992187-1.492188-1.960938-3.792969-3.148438-6.257813-3.226563zm-74.398437 239.519532c12.003906 0 21.773437 10.34375 21.773437 23.058593 0 12.714844-9.769531 23.054688-21.773437 23.054688-12.007813 0-21.773438-10.339844-21.773438-23.054688 0-12.710937 9.765625-23.058593 21.769531-23.058593zm-169.65625 0c12.007812 0 21.773437 10.34375 21.773437 23.058593 0 12.714844-9.765625 23.054688-21.773437 23.054688-12.003907 0-21.773438-10.339844-21.773438-23.054688 0-12.710937 9.765625-23.058593 21.773438-23.058593zm200.074219-75.9375c-2.375 10.683593-11.804688 18.320312-22.746094 18.417968h-241.121094l-26.324219-166h324.121094zm0 0"/><path d="m279.617188 257.269531c41.457031 0 75.066406-33.605469 75.066406-75.066406 0-41.457031-33.609375-75.0625-75.066406-75.0625-41.460938 0-75.066407 33.605469-75.066407 75.0625.046875 41.441406 33.625 75.019531 75.066407 75.066406zm0-134.128906c32.621093 0 59.066406 26.445313 59.066406 59.066406 0 32.621094-26.445313 59.066407-59.066406 59.066407-32.625 0-59.066407-26.445313-59.066407-59.070313.039063-32.601563 26.460938-59.023437 59.066407-59.058594zm0 0"/><path d="m240.699219 188.472656h30.773437v30.972656c0 4.417969 3.578125 8 8 8 4.417969 0 8-3.582031 8-8v-30.972656h31.058594c4.421875 0 8-3.582031 8-8 0-4.417968-3.578125-8-8-8h-31.058594v-30.863281c0-4.417969-3.582031-8-8-8-4.421875 0-8 3.582031-8 8v30.863281h-30.773437c-4.417969 0-8 3.582032-8 8 0 4.417969 3.582031 8 8 8zm0 0"/></svg>